<svg width="138" height="29" viewBox="0 0 138 29" fill="none" xmlns="http://www.w3.org/2000/svg">
<g filter="url(#filter0_d_2_250)">
<path d="M17.202 4.28H7.80195C7.24195 4.28 6.80195 4.74 6.80195 5.28V19C6.80195 19.54 7.24195 20 7.80195 20C8.36195 20 8.80195 19.54 8.80195 19V13.3H15.982C16.522 13.3 16.982 12.86 16.982 12.3C16.982 11.76 16.522 11.3 15.982 11.3H8.80195V6.28H17.202C17.762 6.28 18.202 5.84 18.202 5.28C18.202 4.74 17.762 4.28 17.202 4.28ZM26.7384 20.34C25.6384 20.34 24.5584 20.12 23.5384 19.68C22.5584 19.26 21.6784 18.68 20.9184 17.92C20.1784 17.16 19.5784 16.3 19.1584 15.32C18.7384 14.32 18.5184 13.26 18.5184 12.18C18.5184 11.08 18.7384 10.02 19.1784 9.02C19.5984 8.06 20.1984 7.18 20.9584 6.44C21.7184 5.68 22.5984 5.1 23.5784 4.68C24.5984 4.26 25.6784 4.04 26.7984 4.04C28.9784 4.04 31.0184 4.9 32.5384 6.46C33.2784 7.2 33.8384 8.08 34.2384 9.04C34.6584 10.04 34.8584 11.1 34.8584 12.18C34.8584 13.28 34.6584 14.34 34.2384 15.32C33.8384 16.3 33.2584 17.18 32.5184 17.92C30.9784 19.48 28.9384 20.34 26.7384 20.34ZM26.7984 6.04C25.9584 6.04 25.1384 6.2 24.3584 6.52C23.5984 6.84 22.9384 7.28 22.3584 7.86C21.7784 8.42 21.3184 9.08 21.0184 9.82C20.6784 10.56 20.5184 11.36 20.5184 12.18C20.5184 13 20.6784 13.78 20.9984 14.54C21.3184 15.28 21.7584 15.94 22.3384 16.5C23.5184 17.68 25.0784 18.34 26.7384 18.34C28.3984 18.34 29.9384 17.68 31.0984 16.52C31.6584 15.96 32.0784 15.3 32.3984 14.56C32.6984 13.8 32.8584 13 32.8584 12.18C32.8584 10.54 32.2384 9 31.1184 7.86C29.9784 6.68 28.4384 6.04 26.7984 6.04ZM44.2774 20.34C43.1774 20.34 42.0974 20.12 41.0774 19.68C40.0974 19.26 39.2174 18.68 38.4574 17.92C37.7174 17.16 37.1174 16.3 36.6974 15.32C36.2774 14.32 36.0574 13.26 36.0574 12.18C36.0574 11.08 36.2774 10.02 36.7174 9.02C37.1374 8.06 37.7374 7.18 38.4974 6.44C39.2574 5.68 40.1374 5.1 41.1174 4.68C42.1374 4.26 43.2174 4.04 44.3374 4.04C46.5174 4.04 48.5574 4.9 50.0774 6.46C50.8174 7.2 51.3774 8.08 51.7774 9.04C52.1974 10.04 52.3974 11.1 52.3974 12.18C52.3974 13.28 52.1974 14.34 51.7774 15.32C51.3774 16.3 50.7974 17.18 50.0574 17.92C48.5174 19.48 46.4774 20.34 44.2774 20.34ZM44.3374 6.04C43.4974 6.04 42.6774 6.2 41.8974 6.52C41.1374 6.84 40.4774 7.28 39.8974 7.86C39.3174 8.42 38.8574 9.08 38.5574 9.82C38.2174 10.56 38.0574 11.36 38.0574 12.18C38.0574 13 38.2174 13.78 38.5374 14.54C38.8574 15.28 39.2974 15.94 39.8774 16.5C41.0574 17.68 42.6174 18.34 44.2774 18.34C45.9374 18.34 47.4774 17.68 48.6374 16.52C49.1974 15.96 49.6174 15.3 49.9374 14.56C50.2374 13.8 50.3974 13 50.3974 12.18C50.3974 10.54 49.7774 9 48.6574 7.86C47.5174 6.68 45.9774 6.04 44.3374 6.04ZM59.4518 20H59.4318H54.9118C54.3318 20 53.8918 19.54 53.8918 19V5.28C53.8918 5.02 53.9918 4.76 54.1918 4.58C54.3718 4.4 54.6518 4.28 54.9118 4.28H59.4918C60.5918 4.28 61.6518 4.5 62.6318 4.9C63.5918 5.3 64.4718 5.88 65.2318 6.6C65.9718 7.32 66.5518 8.16 66.9718 9.12C67.3918 10.1 67.6118 11.12 67.6118 12.18C67.6118 13.22 67.3918 14.22 66.9518 15.18C66.5318 16.12 65.9518 16.96 65.1918 17.68C64.4318 18.42 63.5518 18.98 62.5918 19.38C61.5918 19.78 60.5318 20 59.4518 20ZM55.9118 17.98H59.4918C60.3118 17.96 61.0918 17.8 61.8318 17.5C62.5718 17.2 63.2318 16.78 63.7918 16.24C64.3518 15.7 64.7918 15.06 65.1318 14.36C65.4518 13.66 65.6118 12.94 65.6118 12.18C65.6118 11.4 65.4518 10.64 65.1318 9.92C64.8118 9.22 64.3718 8.58 63.8118 8.04C62.6518 6.9 61.1318 6.28 59.4918 6.28H55.9118V17.98Z" fill="#14142B"/>
<path d="M83.1243 19.92C82.6643 20.12 82.0643 19.96 81.7843 19.42L80.4043 16.34C79.1043 16.02 77.8043 16 76.5443 16.28C75.5243 16.48 74.5243 16.86 73.5443 17.46C72.5443 18.08 71.5043 18.9 70.7443 19.64C70.3643 20.02 69.8643 20.14 69.4443 19.88C69.0043 19.6 69.0643 19.04 69.2643 18.58L75.5843 4.86C75.7643 4.5 76.1043 4.28 76.5043 4.28C76.8843 4.28 77.2643 4.52 77.4043 4.86L83.6243 18.58C83.8443 19.1 83.6243 19.68 83.1243 19.92ZM76.4843 7.68L72.6443 15.86C73.7043 15.26 75.1043 14.72 76.2243 14.5C77.3043 14.26 78.4043 14.22 79.5043 14.32L76.4843 7.68ZM96.982 20.06C96.562 20.06 96.182 19.8 96.042 19.4L92.202 8.32L88.422 19.4C88.282 19.8 87.902 20.06 87.482 20.06C87.062 20.06 86.682 19.8 86.542 19.4L81.862 5.56C81.682 5.04 81.942 4.48 82.462 4.28C82.982 4.1 83.562 4.36 83.742 4.88L87.482 15.96L91.262 4.88C91.402 4.48 91.782 4.22 92.202 4.22C92.622 4.22 93.002 4.48 93.142 4.88L96.982 15.96L100.662 4.88C100.842 4.36 101.422 4.1 101.942 4.28C102.462 4.48 102.722 5.04 102.542 5.56L97.922 19.4C97.782 19.8 97.402 20.06 96.982 20.06ZM114.726 19.92C114.266 20.12 113.666 19.96 113.386 19.42L112.006 16.34C110.706 16.02 109.406 16 108.146 16.28C107.126 16.48 106.126 16.86 105.146 17.46C104.146 18.08 103.106 18.9 102.346 19.64C101.966 20.02 101.466 20.14 101.046 19.88C100.606 19.6 100.666 19.04 100.866 18.58L107.186 4.86C107.366 4.5 107.706 4.28 108.106 4.28C108.486 4.28 108.866 4.52 109.006 4.86L115.226 18.58C115.446 19.1 115.226 19.68 114.726 19.92ZM108.086 7.68L104.246 15.86C105.306 15.26 106.706 14.72 107.826 14.5C108.906 14.26 110.006 14.22 111.106 14.32L108.086 7.68ZM130.722 19.92C130.262 20.12 129.662 19.96 129.382 19.42L128.002 16.34C126.702 16.02 125.402 16 124.142 16.28C123.122 16.48 122.122 16.86 121.142 17.46C120.142 18.08 119.102 18.9 118.342 19.64C117.962 20.02 117.462 20.14 117.042 19.88C116.602 19.6 116.662 19.04 116.862 18.58L123.182 4.86C123.362 4.5 123.702 4.28 124.102 4.28C124.482 4.28 124.862 4.52 125.002 4.86L131.222 18.58C131.442 19.1 131.222 19.68 130.722 19.92ZM124.082 7.68L120.242 15.86C121.302 15.26 122.702 14.72 123.822 14.5C124.902 14.26 126.002 14.22 127.102 14.32L124.082 7.68Z" fill="#00BA88"/>
</g>
<defs>
<filter id="filter0_d_2_250" x="0.802002" y="0.0400085" width="136.64" height="28.3" filterUnits="userSpaceOnUse" color-interpolation-filters="sRGB">
<feFlood flood-opacity="0" result="BackgroundImageFix"/>
<feColorMatrix in="SourceAlpha" type="matrix" values="0 0 0 0 0 0 0 0 0 0 0 0 0 0 0 0 0 0 127 0" result="hardAlpha"/>
<feOffset dy="2"/>
<feGaussianBlur stdDeviation="3"/>
<feColorMatrix type="matrix" values="0 0 0 0 0.224514 0 0 0 0 0.254167 0 0 0 0 0.227479 0 0 0 0.1 0"/>
<feBlend mode="normal" in2="BackgroundImageFix" result="effect1_dropShadow_2_250"/>
<feBlend mode="normal" in="SourceGraphic" in2="effect1_dropShadow_2_250" result="shape"/>
</filter>
</defs>
</svg>
